# xmcd
#
# Track frame offsets: 
#        150
#        13240
#        26543
#        39791
#        51271
#        65604
#        75657
#        89025
#        102716
#        116779
#        128989
#        140960
#
# Disc length: 2117 seconds
#
# Revision: 0
# Processed by: cddbd v1.5.2PL0 Copyright (c) Steve Scherf et al.
# Submitted via: ExactAudioCopy v1.0b1
#
DISCID=b108430c
DTITLE=Albert King - The Big Blues
DYEAR=1962
DGENRE=Modern Electric Blues
TTITLE0=Let's Have A Natural Ball
TTITLE1=What Can I Do To Change Your Mind'
TTITLE2=I Get Evil
TTITLE3=Had You Told It Like It Was (It Wouldn't Be Like It Is)
TTITLE4=This Morning
TTITLE5=I Walked All Night Long
TTITLE6=Don't Throw Your Love On Me So Strong
TTITLE7=Travelin' To California
TTITLE8=I've Made Nights By Myself
TTITLE9=This Funny Feeling
TTITLE10=Ooh-Ee Baby
TTITLE11=Dyna Flow
EXTD=
EXTT0=
EXTT1=
EXTT2=
EXTT3=
EXTT4=
EXTT5=
EXTT6=
EXTT7=
EXTT8=
EXTT9=
EXTT10=
EXTT11=
PLAYORDER=
